<mxfile host="app.diagrams.net" modified="2024-04-29T06:13:14.475Z" agent="Mozilla/5.0 (X11; Linux x86_64) AppleWebKit/537.36 (KHTML, like Gecko) Chrome/118.0.0.0 Safari/537.36" etag="RpxYK8hOhfTlYH1lf1c1" version="24.2.8" type="github">
  <diagram name="Page-1" id="EiB_NoNXoPMIS1jdnHs0">
    <mxGraphModel dx="1224" dy="1871" grid="1" gridSize="10" guides="1" tooltips="1" connect="1" arrows="1" fold="1" page="1" pageScale="1" pageWidth="850" pageHeight="1100" math="0" shadow="0">
      <root>
        <mxCell id="0" />
        <mxCell id="1" parent="0" />
        <mxCell id="BP7bixYS6vl5cq9fbcZf-37" value="&lt;p style=&quot;text-align: center; margin: 4px 0px 0px;&quot;&gt;&lt;span style=&quot;background-color: initial;&quot;&gt;&lt;b&gt;src/transformers/modeling_utils.py&lt;/b&gt;&lt;/span&gt;&lt;/p&gt;" style="verticalAlign=top;align=left;overflow=fill;html=1;whiteSpace=wrap;dashed=1;backgroundOutline=0;" vertex="1" parent="1">
          <mxGeometry x="80" y="140" width="600" height="150" as="geometry" />
        </mxCell>
        <mxCell id="BP7bixYS6vl5cq9fbcZf-25" value="&lt;p style=&quot;margin:0px;margin-top:4px;text-align:center;&quot;&gt;&lt;b&gt;src/transformers/models/auto/auto_factory.py&lt;/b&gt;&lt;/p&gt;&lt;p style=&quot;margin:0px;margin-top:4px;text-align:center;&quot;&gt;&lt;b&gt;class _BaseAutoModelClass&lt;/b&gt;&lt;/p&gt;&lt;hr size=&quot;1&quot; style=&quot;border-style:solid;&quot;&gt;&lt;p style=&quot;text-align: center; margin: 0px 0px 0px 4px;&quot;&gt;&lt;span style=&quot;&quot;&gt;def&amp;nbsp;from_pretrained&lt;/span&gt;&lt;br&gt;&lt;/p&gt;" style="verticalAlign=top;align=left;overflow=fill;html=1;whiteSpace=wrap;" vertex="1" parent="1">
          <mxGeometry x="40" y="450" width="300" height="90" as="geometry" />
        </mxCell>
        <mxCell id="BP7bixYS6vl5cq9fbcZf-26" value="&lt;p style=&quot;margin:0px;margin-top:4px;text-align:center;&quot;&gt;&lt;b&gt;src/transformers/models/auto/modeling_auto.py&lt;/b&gt;&lt;/p&gt;&lt;p style=&quot;margin:0px;margin-top:4px;text-align:center;&quot;&gt;&lt;b&gt;class AutoModelForCausalLM&lt;/b&gt;&lt;/p&gt;&lt;hr size=&quot;1&quot; style=&quot;border-style:solid;&quot;&gt;&lt;p style=&quot;text-align: center; margin: 0px 0px 0px 4px;&quot;&gt;&lt;span style=&quot;&quot;&gt;def&amp;nbsp;from_pretrained&lt;/span&gt;&lt;br&gt;&lt;/p&gt;" style="verticalAlign=top;align=left;overflow=fill;html=1;whiteSpace=wrap;" vertex="1" parent="1">
          <mxGeometry x="40" y="605" width="300" height="90" as="geometry" />
        </mxCell>
        <mxCell id="BP7bixYS6vl5cq9fbcZf-27" value="Extends" style="endArrow=block;endSize=16;endFill=0;html=1;rounded=0;exitX=0.5;exitY=0;exitDx=0;exitDy=0;entryX=0.5;entryY=1;entryDx=0;entryDy=0;" edge="1" parent="1" source="BP7bixYS6vl5cq9fbcZf-26" target="BP7bixYS6vl5cq9fbcZf-25">
          <mxGeometry width="160" relative="1" as="geometry">
            <mxPoint x="170" y="665" as="sourcePoint" />
            <mxPoint x="170" y="595" as="targetPoint" />
          </mxGeometry>
        </mxCell>
        <mxCell id="BP7bixYS6vl5cq9fbcZf-30" value="&lt;p style=&quot;margin:0px;margin-top:4px;text-align:center;&quot;&gt;&lt;b&gt;src/transformers/models/qwen2/modeling_qwen2.py&lt;/b&gt;&lt;br&gt;&lt;/p&gt;&lt;p style=&quot;text-align: center; margin: 4px 0px 0px;&quot;&gt;&lt;b&gt;class&amp;nbsp;&lt;/b&gt;&lt;span style=&quot;background-color: initial;&quot;&gt;&lt;b&gt;Qwen2PreTrainedModel&lt;/b&gt;&lt;/span&gt;&lt;/p&gt;" style="verticalAlign=top;align=left;overflow=fill;html=1;whiteSpace=wrap;" vertex="1" parent="1">
          <mxGeometry x="400" y="350" width="340" height="50" as="geometry" />
        </mxCell>
        <mxCell id="BP7bixYS6vl5cq9fbcZf-32" value="Extends" style="endArrow=block;endSize=16;endFill=0;html=1;rounded=0;exitX=0.5;exitY=0;exitDx=0;exitDy=0;entryX=0.5;entryY=1;entryDx=0;entryDy=0;" edge="1" parent="1" source="BP7bixYS6vl5cq9fbcZf-28" target="BP7bixYS6vl5cq9fbcZf-30">
          <mxGeometry width="160" relative="1" as="geometry">
            <mxPoint x="569.5" y="425" as="sourcePoint" />
            <mxPoint x="570" y="380" as="targetPoint" />
          </mxGeometry>
        </mxCell>
        <mxCell id="BP7bixYS6vl5cq9fbcZf-33" value="&lt;p style=&quot;margin:0px;margin-top:4px;text-align:center;&quot;&gt;&lt;b style=&quot;background-color: initial;&quot;&gt;class&amp;nbsp;&lt;/b&gt;&lt;span style=&quot;background-color: initial; text-align: left;&quot;&gt;&lt;b&gt;PreTrainedModel&lt;/b&gt;&lt;/span&gt;&lt;br&gt;&lt;/p&gt;&lt;hr size=&quot;1&quot; style=&quot;border-style:solid;&quot;&gt;&lt;p style=&quot;text-align: center; margin: 0px 0px 0px 4px;&quot;&gt;&lt;span style=&quot;&quot;&gt;def&amp;nbsp;from_pretrained&lt;/span&gt;&lt;br&gt;&lt;/p&gt;" style="verticalAlign=top;align=left;overflow=fill;html=1;whiteSpace=wrap;" vertex="1" parent="1">
          <mxGeometry x="395" y="230" width="270" height="50" as="geometry" />
        </mxCell>
        <mxCell id="BP7bixYS6vl5cq9fbcZf-36" value="&lt;p style=&quot;margin:0px;margin-top:4px;text-align:center;&quot;&gt;&lt;b style=&quot;background-color: initial;&quot;&gt;class&amp;nbsp;&lt;/b&gt;&lt;span style=&quot;background-color: initial; text-align: left;&quot;&gt;&lt;b&gt;PreTrainedModel&lt;/b&gt;&lt;/span&gt;&lt;br&gt;&lt;/p&gt;&lt;hr size=&quot;1&quot; style=&quot;border-style:solid;&quot;&gt;&lt;p style=&quot;text-align: center; margin: 0px 0px 0px 4px;&quot;&gt;&lt;span style=&quot;&quot;&gt;def&amp;nbsp;&lt;/span&gt;&lt;span style=&quot;background-color: initial; text-align: left;&quot;&gt;_load_pretrained_model&lt;/span&gt;&lt;br&gt;&lt;/p&gt;" style="verticalAlign=top;align=left;overflow=fill;html=1;whiteSpace=wrap;" vertex="1" parent="1">
          <mxGeometry x="90" y="230" width="270" height="50" as="geometry" />
        </mxCell>
        <mxCell id="BP7bixYS6vl5cq9fbcZf-39" value="" style="endArrow=classic;html=1;rounded=0;" edge="1" parent="1">
          <mxGeometry width="50" height="50" relative="1" as="geometry">
            <mxPoint x="437.5" y="270" as="sourcePoint" />
            <mxPoint x="322.5" y="270" as="targetPoint" />
          </mxGeometry>
        </mxCell>
        <mxCell id="BP7bixYS6vl5cq9fbcZf-40" value="def&amp;nbsp;&lt;span style=&quot;background-color: initial;&quot;&gt;_load_state_dict_into_meta_model&lt;/span&gt;" style="rounded=0;whiteSpace=wrap;html=1;" vertex="1" parent="1">
          <mxGeometry x="255" y="170" width="250" height="30" as="geometry" />
        </mxCell>
        <mxCell id="BP7bixYS6vl5cq9fbcZf-41" value="" style="endArrow=classic;html=1;rounded=0;" edge="1" parent="1">
          <mxGeometry width="50" height="50" relative="1" as="geometry">
            <mxPoint x="310" y="260" as="sourcePoint" />
            <mxPoint x="350" y="210" as="targetPoint" />
          </mxGeometry>
        </mxCell>
        <mxCell id="BP7bixYS6vl5cq9fbcZf-34" value="Extends" style="endArrow=block;endSize=16;endFill=0;html=1;rounded=0;exitX=0.385;exitY=0.02;exitDx=0;exitDy=0;exitPerimeter=0;" edge="1" parent="1" source="BP7bixYS6vl5cq9fbcZf-30" target="BP7bixYS6vl5cq9fbcZf-33">
          <mxGeometry width="160" relative="1" as="geometry">
            <mxPoint x="569.5" y="280" as="sourcePoint" />
            <mxPoint x="570" y="220" as="targetPoint" />
          </mxGeometry>
        </mxCell>
        <mxCell id="BP7bixYS6vl5cq9fbcZf-28" value="&lt;p style=&quot;margin:0px;margin-top:4px;text-align:center;&quot;&gt;&lt;b&gt;src/transformers/models/qwen2/modeling_qwen2.py&lt;/b&gt;&lt;br&gt;&lt;/p&gt;&lt;p style=&quot;margin:0px;margin-top:4px;text-align:center;&quot;&gt;&lt;b&gt;class &lt;/b&gt;&lt;span style=&quot;background-color: initial; text-align: left;&quot;&gt;&lt;b&gt;Qwen2ForCausalLM&lt;/b&gt;&lt;/span&gt;&lt;/p&gt;" style="verticalAlign=top;align=left;overflow=fill;html=1;whiteSpace=wrap;" vertex="1" parent="1">
          <mxGeometry x="400" y="470" width="340" height="50" as="geometry" />
        </mxCell>
        <mxCell id="BP7bixYS6vl5cq9fbcZf-29" value="" style="endArrow=classic;html=1;rounded=0;jumpStyle=none;entryX=0.056;entryY=1.14;entryDx=0;entryDy=0;entryPerimeter=0;" edge="1" parent="1" target="BP7bixYS6vl5cq9fbcZf-33">
          <mxGeometry width="50" height="50" relative="1" as="geometry">
            <mxPoint x="310" y="510" as="sourcePoint" />
            <mxPoint x="480" y="280" as="targetPoint" />
            <Array as="points">
              <mxPoint x="410" y="510" />
            </Array>
          </mxGeometry>
        </mxCell>
        <mxCell id="BP7bixYS6vl5cq9fbcZf-45" value="&lt;p style=&quot;text-align: center; margin: 4px 0px 0px;&quot;&gt;&lt;b&gt;/usr/local/lib/python3.10/dist-packages/accelerate/utils/modeling.py&lt;/b&gt;&lt;br&gt;&lt;/p&gt;" style="verticalAlign=top;align=left;overflow=fill;html=1;whiteSpace=wrap;dashed=1;backgroundOutline=0;" vertex="1" parent="1">
          <mxGeometry x="160" y="-30" width="440" height="150" as="geometry" />
        </mxCell>
        <mxCell id="BP7bixYS6vl5cq9fbcZf-46" value="def set_module_tensor_to_device" style="rounded=0;whiteSpace=wrap;html=1;" vertex="1" parent="1">
          <mxGeometry x="270" width="220" height="30" as="geometry" />
        </mxCell>
        <mxCell id="BP7bixYS6vl5cq9fbcZf-48" value="" style="endArrow=classic;html=1;rounded=0;" edge="1" parent="1">
          <mxGeometry width="50" height="50" relative="1" as="geometry">
            <mxPoint x="260" y="157.5" as="sourcePoint" />
            <mxPoint x="260" y="33" as="targetPoint" />
          </mxGeometry>
        </mxCell>
        <mxCell id="BP7bixYS6vl5cq9fbcZf-49" value="根据模块名称逐层匹配，匹配到后统一采用“module._parameters[tensor_name] = new_value”填入权重文件中的值" style="text;html=1;align=center;verticalAlign=middle;whiteSpace=wrap;rounded=0;" vertex="1" parent="1">
          <mxGeometry x="220" y="50" width="320" height="60" as="geometry" />
        </mxCell>
      </root>
    </mxGraphModel>
  </diagram>
</mxfile>
